<svg width="56" height="58" viewBox="0 0 56 58" fill="none" xmlns="http://www.w3.org/2000/svg">
<path d="M10.1498 1.45C10.1498 1.06543 10.3026 0.696622 10.5745 0.424695C10.8464 0.152767 11.2152 0 11.5998 0C11.9844 0 12.3532 0.152767 12.6251 0.424695C12.897 0.696622 13.0498 1.06543 13.0498 1.45V10.15C13.0498 10.5345 12.897 10.9034 12.6251 11.1753C12.3532 11.4472 11.9844 11.6 11.5998 11.6C11.2152 11.6 10.8464 11.4472 10.5745 11.1753C10.3026 10.9034 10.1498 10.5345 10.1498 10.15V1.45Z" fill="black"/>
<path d="M33.3501 1.45C33.3501 1.06543 33.5029 0.696622 33.7748 0.424695C34.0468 0.152767 34.4156 0 34.8001 0C35.1847 0 35.5535 0.152767 35.8254 0.424695C36.0974 0.696622 36.2501 1.06543 36.2501 1.45V10.15C36.2501 10.5345 36.0974 10.9034 35.8254 11.1753C35.5535 11.4472 35.1847 11.6 34.8001 11.6C34.4156 11.6 34.0468 11.4472 33.7748 11.1753C33.5029 10.9034 33.3501 10.5345 33.3501 10.15V1.45Z" fill="black"/>
<path fill-rule="evenodd" clip-rule="evenodd" d="M13.05 27.55H10.15V30.45H13.05V27.55ZM10.15 24.65C9.38087 24.65 8.64324 24.9555 8.09939 25.4994C7.55553 26.0432 7.25 26.7809 7.25 27.55V30.45C7.25 31.2191 7.55553 31.9567 8.09939 32.5006C8.64324 33.0444 9.38087 33.35 10.15 33.35H13.05C13.8191 33.35 14.5567 33.0444 15.1006 32.5006C15.6445 31.9567 15.95 31.2191 15.95 30.45V27.55C15.95 26.7809 15.6445 26.0432 15.1006 25.4994C14.5567 24.9555 13.8191 24.65 13.05 24.65H10.15Z" fill="black"/>
<path fill-rule="evenodd" clip-rule="evenodd" d="M24.6501 27.55H21.7501V30.45H24.6501V27.55ZM21.7501 24.65C20.981 24.65 20.2433 24.9555 19.6995 25.4994C19.1556 26.0432 18.8501 26.7809 18.8501 27.55V30.45C18.8501 31.2191 19.1556 31.9567 19.6995 32.5006C20.2433 33.0444 20.981 33.35 21.7501 33.35H24.6501C25.4192 33.35 26.1568 33.0444 26.7007 32.5006C27.2446 31.9567 27.5501 31.2191 27.5501 30.45V27.55C27.5501 26.7809 27.2446 26.0432 26.7007 25.4994C26.1568 24.9555 25.4192 24.65 24.6501 24.65H21.7501Z" fill="black"/>
<path fill-rule="evenodd" clip-rule="evenodd" d="M36.2499 27.55H33.3499V30.45H36.2499V27.55ZM33.3499 24.65C32.5807 24.65 31.8431 24.9555 31.2992 25.4994C30.7554 26.0432 30.4499 26.7809 30.4499 27.55V30.45C30.4499 31.2191 30.7554 31.9567 31.2992 32.5006C31.8431 33.0444 32.5807 33.35 33.3499 33.35H36.2499C37.019 33.35 37.7566 33.0444 38.3005 32.5006C38.8443 31.9567 39.1498 31.2191 39.1498 30.45V27.55C39.1498 26.7809 38.8443 26.0432 38.3005 25.4994C37.7566 24.9555 37.019 24.65 36.2499 24.65H33.3499Z" fill="black"/>
<path fill-rule="evenodd" clip-rule="evenodd" d="M13.05 39.1499H10.15V42.0499H13.05V39.1499ZM10.15 36.2499C9.38087 36.2499 8.64324 36.5555 8.09939 37.0993C7.55553 37.6432 7.25 38.3808 7.25 39.1499V42.0499C7.25 42.8191 7.55553 43.5567 8.09939 44.1005C8.64324 44.6444 9.38087 44.9499 10.15 44.9499H13.05C13.8191 44.9499 14.5567 44.6444 15.1006 44.1005C15.6445 43.5567 15.95 42.8191 15.95 42.0499V39.1499C15.95 38.3808 15.6445 37.6432 15.1006 37.0993C14.5567 36.5555 13.8191 36.2499 13.05 36.2499H10.15Z" fill="black"/>
<path fill-rule="evenodd" clip-rule="evenodd" d="M24.6501 39.1499H21.7501V42.0499H24.6501V39.1499ZM21.7501 36.2499C20.981 36.2499 20.2433 36.5555 19.6995 37.0993C19.1556 37.6432 18.8501 38.3808 18.8501 39.1499V42.0499C18.8501 42.8191 19.1556 43.5567 19.6995 44.1005C20.2433 44.6444 20.981 44.9499 21.7501 44.9499H24.6501C25.4192 44.9499 26.1568 44.6444 26.7007 44.1005C27.2446 43.5567 27.5501 42.8191 27.5501 42.0499V39.1499C27.5501 38.3808 27.2446 37.6432 26.7007 37.0993C26.1568 36.5555 25.4192 36.2499 24.6501 36.2499H21.7501Z" fill="black"/>
<path fill-rule="evenodd" clip-rule="evenodd" d="M5.79999 8.70007H40.5999C41.3691 8.70007 42.1067 9.00561 42.6505 9.54946C43.1944 10.0933 43.4999 10.8309 43.4999 11.6001V34.8C44.5004 34.8 45.4719 34.9262 46.3999 35.1654V11.6001C46.3999 10.0618 45.7889 8.58657 44.7011 7.49886C43.6134 6.41115 42.1382 5.80008 40.5999 5.80008H5.79999C4.26174 5.80008 2.78649 6.41115 1.69878 7.49886C0.611068 8.58657 0 10.0618 0 11.6001V46.4C0 47.9383 0.611068 49.4135 1.69878 50.5012C2.78649 51.5889 4.26174 52.2 5.79999 52.2H33.4514C32.926 51.2918 32.527 50.3161 32.2654 49.3H5.79999C5.03086 49.3 4.29324 48.9945 3.74938 48.4506C3.20553 47.9068 2.9 47.1691 2.9 46.4V11.6001C2.9 10.8309 3.20553 10.0933 3.74938 9.54946C4.29324 9.00561 5.03086 8.70007 5.79999 8.70007Z" fill="black"/>
<path d="M0 11.6001C0 10.0618 0.611068 8.58657 1.69878 7.49886C2.78649 6.41115 4.26174 5.80008 5.79999 5.80008H40.5999C42.1382 5.80008 43.6134 6.41115 44.7011 7.49886C45.7889 8.58657 46.3999 10.0618 46.3999 11.6001V21.7501H0V11.6001Z" fill="black"/>
<path fill-rule="evenodd" clip-rule="evenodd" d="M40.5999 8.70007H5.79999C5.03086 8.70007 4.29324 9.00561 3.74938 9.54946C3.20553 10.0933 2.9 10.8309 2.9 11.6001V18.8501H43.4999V11.6001C43.4999 10.8309 43.1944 10.0933 42.6505 9.54946C42.1067 9.00561 41.3691 8.70007 40.5999 8.70007ZM5.79999 5.80008C4.26174 5.80008 2.78649 6.41115 1.69878 7.49886C0.611068 8.58657 0 10.0618 0 11.6001V21.7501H46.3999V11.6001C46.3999 10.0618 45.7889 8.58657 44.7011 7.49886C43.6134 6.41115 42.1382 5.80008 40.5999 5.80008H5.79999Z" fill="black"/>
<path fill-rule="evenodd" clip-rule="evenodd" d="M44.9498 21.7499H1.44988V18.8499H44.9498V21.7499Z" fill="black"/>
<path fill-rule="evenodd" clip-rule="evenodd" d="M43.4997 55.1C45.8071 55.1 48.02 54.1834 49.6515 52.5518C51.2831 50.9203 52.1997 48.7074 52.1997 46.4C52.1997 44.0926 51.2831 41.8797 49.6515 40.2482C48.02 38.6166 45.8071 37.7 43.4997 37.7C41.1923 37.7 38.9795 38.6166 37.3479 40.2482C35.7163 41.8797 34.7997 44.0926 34.7997 46.4C34.7997 48.7074 35.7163 50.9203 37.3479 52.5518C38.9795 54.1834 41.1923 55.1 43.4997 55.1ZM43.4997 58C46.5762 58 49.5267 56.7778 51.7021 54.6024C53.8776 52.427 55.0997 49.4765 55.0997 46.4C55.0997 43.3235 53.8776 40.373 51.7021 38.1976C49.5267 36.0222 46.5762 34.8 43.4997 34.8C40.4232 34.8 37.4727 36.0222 35.2973 38.1976C33.1219 40.373 31.8997 43.3235 31.8997 46.4C31.8997 49.4765 33.1219 52.427 35.2973 54.6024C37.4727 56.7778 40.4232 58 43.4997 58Z" fill="black"/>
<path fill-rule="evenodd" clip-rule="evenodd" d="M43.5 39.4095C43.8846 39.4095 44.2534 39.5623 44.5254 39.8342C44.7973 40.1061 44.95 40.4749 44.95 40.8595V47.0916L48.5054 49.5595C48.6664 49.6661 48.8045 49.8039 48.9115 49.9646C49.0185 50.1254 49.0924 50.3059 49.1287 50.4956C49.165 50.6852 49.163 50.8802 49.123 51.0691C49.0829 51.258 49.0055 51.4371 48.8953 51.5956C48.7851 51.7542 48.6443 51.8892 48.4812 51.9926C48.3182 52.0961 48.1361 52.1659 47.9456 52.198C47.7552 52.2301 47.5603 52.2239 47.3723 52.1796C47.1843 52.1354 47.0071 52.054 46.851 51.9404L42.05 48.6083V40.8609C42.05 40.4764 42.2028 40.1076 42.4747 39.8356C42.7467 39.5637 43.1155 39.4109 43.5 39.4109V39.4095Z" fill="black"/>
</svg>
