<svg width="306" height="122" viewBox="0 0 306 122" fill="none" xmlns="http://www.w3.org/2000/svg">
<path d="M19.2 64.64C16.128 64.64 13.3973 64.256 11.008 63.488C8.61867 62.72 6.37867 61.4187 4.288 59.584C3.136 58.56 2.56 57.4293 2.56 56.192C2.56 55.2107 2.92267 54.3573 3.648 53.632C4.37333 52.864 5.248 52.48 6.272 52.48C7.08267 52.48 7.808 52.736 8.448 53.248C10.1547 54.656 11.8187 55.68 13.44 56.32C15.0613 56.96 16.9813 57.28 19.2 57.28C21.5893 57.28 23.6373 56.7467 25.344 55.68C27.0933 54.6133 27.968 53.2907 27.968 51.712C27.968 49.792 27.1147 48.2987 25.408 47.232C23.7013 46.1227 20.992 45.2907 17.28 44.736C7.936 43.3707 3.264 39.0187 3.264 31.68C3.264 28.992 3.968 26.6667 5.376 24.704C6.784 22.6987 8.704 21.184 11.136 20.16C13.568 19.0933 16.2773 18.56 19.264 18.56C21.952 18.56 24.4693 18.9653 26.816 19.776C29.2053 20.5867 31.1893 21.6533 32.768 22.976C34.0053 23.9573 34.624 25.088 34.624 26.368C34.624 27.3493 34.2613 28.224 33.536 28.992C32.8107 29.7173 31.9573 30.08 30.976 30.08C30.336 30.08 29.76 29.888 29.248 29.504C28.1387 28.608 26.5813 27.7973 24.576 27.072C22.6133 26.304 20.8427 25.92 19.264 25.92C16.576 25.92 14.4853 26.432 12.992 27.456C11.5413 28.4373 10.816 29.7387 10.816 31.36C10.816 33.1947 11.5627 34.5813 13.056 35.52C14.592 36.4587 16.9813 37.2267 20.224 37.824C23.8933 38.464 26.816 39.296 28.992 40.32C31.2107 41.3013 32.8747 42.6667 33.984 44.416C35.0933 46.1227 35.648 48.4053 35.648 51.264C35.648 53.952 34.88 56.32 33.344 58.368C31.8507 60.3733 29.8453 61.9307 27.328 63.04C24.8107 64.1067 22.1013 64.64 19.2 64.64ZM57.2595 29.12C60.8862 29.12 63.8088 29.696 66.0275 30.848C68.2462 31.9573 69.3555 33.4507 69.3555 35.328C69.3555 36.2667 69.0782 37.0987 68.5235 37.824C67.9688 38.5067 67.2435 38.848 66.3475 38.848C65.6648 38.848 65.1102 38.7627 64.6835 38.592C64.2568 38.3787 63.8302 38.1227 63.4035 37.824C63.0195 37.4827 62.6355 37.2053 62.2515 36.992C61.8248 36.7787 61.1848 36.5867 60.3315 36.416C59.5208 36.2453 58.8595 36.16 58.3475 36.16C55.1475 36.16 52.6302 37.1627 50.7955 39.168C49.0035 41.1307 48.1075 43.712 48.1075 46.912C48.1075 49.984 49.0248 52.544 50.8595 54.592C52.6942 56.5973 55.0408 57.6 57.8995 57.6C59.9902 57.6 61.5475 57.344 62.5715 56.832C62.8275 56.704 63.1688 56.4907 63.5955 56.192C64.0648 55.8507 64.4915 55.5947 64.8755 55.424C65.2595 55.2533 65.7288 55.168 66.2835 55.168C67.3502 55.168 68.1822 55.5093 68.7795 56.192C69.4195 56.8747 69.7395 57.7493 69.7395 58.816C69.7395 59.84 69.1422 60.8 67.9475 61.696C66.7528 62.592 65.1742 63.3173 63.2115 63.872C61.2488 64.384 59.1582 64.64 56.9395 64.64C53.6542 64.64 50.7528 63.872 48.2355 62.336C45.7608 60.8 43.8408 58.688 42.4755 56C41.1102 53.2693 40.4275 50.24 40.4275 46.912C40.4275 43.456 41.1315 40.384 42.5395 37.696C43.9902 35.008 45.9955 32.9173 48.5555 31.424C51.1155 29.888 54.0168 29.12 57.2595 29.12ZM93.269 29.12C97.493 29.12 100.416 30.4213 102.037 33.024C103.658 35.584 104.469 39.1467 104.469 43.712V60.096C104.469 61.2053 104.106 62.144 103.381 62.912C102.656 63.6373 101.738 64 100.629 64C99.5197 64 98.6023 63.6373 97.877 62.912C97.1517 62.144 96.789 61.2053 96.789 60.096V43.712C96.789 41.3653 96.3197 39.5307 95.381 38.208C94.485 36.8427 92.885 36.16 90.581 36.16C88.1917 36.16 86.3143 36.8853 84.949 38.336C83.6263 39.744 82.965 41.536 82.965 43.712V60.096C82.965 61.2053 82.6023 62.144 81.877 62.912C81.1517 63.6373 80.2343 64 79.125 64C78.0157 64 77.0983 63.6373 76.373 62.912C75.6477 62.144 75.285 61.2053 75.285 60.096V20.544C75.285 19.4347 75.6477 18.5173 76.373 17.792C77.0983 17.024 78.0157 16.64 79.125 16.64C80.2343 16.64 81.1517 17.024 81.877 17.792C82.6023 18.5173 82.965 19.4347 82.965 20.544V34.688C84.117 33.152 85.5677 31.8507 87.317 30.784C89.109 29.6747 91.093 29.12 93.269 29.12ZM143.505 46.08C143.462 47.104 143.057 47.936 142.289 48.576C141.521 49.216 140.625 49.536 139.601 49.536H118.481C118.993 52.0533 120.166 54.0373 122.001 55.488C123.836 56.896 125.905 57.6 128.209 57.6C129.958 57.6 131.324 57.4507 132.305 57.152C133.286 56.8107 134.054 56.4693 134.609 56.128C135.206 55.744 135.612 55.488 135.825 55.36C136.593 54.976 137.318 54.784 138.001 54.784C138.897 54.784 139.665 55.104 140.305 55.744C140.945 56.384 141.265 57.1307 141.265 57.984C141.265 59.136 140.668 60.1813 139.473 61.12C138.278 62.1013 136.678 62.9333 134.673 63.616C132.668 64.2987 130.641 64.64 128.593 64.64C125.009 64.64 121.873 63.8933 119.185 62.4C116.54 60.9067 114.492 58.8587 113.041 56.256C111.59 53.6107 110.865 50.6453 110.865 47.36C110.865 43.6907 111.633 40.4693 113.169 37.696C114.705 34.9227 116.732 32.8107 119.249 31.36C121.766 29.8667 124.454 29.12 127.313 29.12C130.129 29.12 132.774 29.888 135.249 31.424C137.766 32.96 139.772 35.0293 141.265 37.632C142.758 40.2347 143.505 43.0507 143.505 46.08ZM127.313 36.16C122.364 36.16 119.441 38.4853 118.545 43.136H135.313V42.688C135.142 40.896 134.268 39.36 132.689 38.08C131.11 36.8 129.318 36.16 127.313 36.16ZM177.622 16.64C178.731 16.64 179.649 17.0027 180.374 17.728C181.099 18.4533 181.462 19.392 181.462 20.544V60.096C181.462 61.2053 181.099 62.144 180.374 62.912C179.649 63.6373 178.731 64 177.622 64C176.513 64 175.595 63.6373 174.87 62.912C174.187 62.1867 173.825 61.2693 173.782 60.16C172.715 61.3973 171.265 62.464 169.43 63.36C167.638 64.2133 165.739 64.64 163.734 64.64C160.79 64.64 158.123 63.8933 155.734 62.4C153.345 60.864 151.446 58.752 150.038 56.064C148.673 53.376 147.99 50.3253 147.99 46.912C147.99 43.4987 148.673 40.448 150.038 37.76C151.403 35.0293 153.259 32.9173 155.606 31.424C157.995 29.888 160.619 29.12 163.478 29.12C165.526 29.12 167.446 29.504 169.238 30.272C171.03 30.9973 172.545 31.936 173.782 33.088V20.544C173.782 19.4347 174.145 18.5173 174.87 17.792C175.595 17.024 176.513 16.64 177.622 16.64ZM164.694 57.6C167.467 57.6 169.729 56.5973 171.478 54.592C173.227 52.544 174.102 49.984 174.102 46.912C174.102 43.84 173.227 41.28 171.478 39.232C169.729 37.184 167.467 36.16 164.694 36.16C161.963 36.16 159.723 37.184 157.974 39.232C156.225 41.28 155.35 43.84 155.35 46.912C155.35 49.984 156.203 52.544 157.91 54.592C159.659 56.5973 161.921 57.6 164.694 57.6ZM216.193 29.76C217.302 29.76 218.22 30.144 218.945 30.912C219.67 31.6373 220.033 32.5547 220.033 33.664V49.92C220.033 54.528 218.753 58.1333 216.193 60.736C213.676 63.3387 210.07 64.64 205.377 64.64C200.684 64.64 197.078 63.3387 194.561 60.736C192.044 58.1333 190.785 54.528 190.785 49.92V33.664C190.785 32.5547 191.148 31.6373 191.873 30.912C192.598 30.144 193.516 29.76 194.625 29.76C195.734 29.76 196.652 30.144 197.377 30.912C198.102 31.6373 198.465 32.5547 198.465 33.664V49.92C198.465 52.5227 199.041 54.464 200.193 55.744C201.345 56.9813 203.073 57.6 205.377 57.6C207.724 57.6 209.473 56.9813 210.625 55.744C211.777 54.464 212.353 52.5227 212.353 49.92V33.664C212.353 32.5547 212.716 31.6373 213.441 30.912C214.166 30.144 215.084 29.76 216.193 29.76ZM236.668 60.096C236.668 61.2053 236.284 62.144 235.516 62.912C234.79 63.6373 233.873 64 232.764 64C231.697 64 230.801 63.6373 230.076 62.912C229.35 62.144 228.988 61.2053 228.988 60.096V20.544C228.988 19.4347 229.35 18.5173 230.076 17.792C230.844 17.024 231.782 16.64 232.892 16.64C233.958 16.64 234.854 17.024 235.58 17.792C236.305 18.5173 236.668 19.4347 236.668 20.544V60.096ZM262.046 23.424C260.595 23.424 259.571 23.8507 258.974 24.704C258.376 25.5147 258.078 26.4107 258.078 27.392V30.4H263.902C264.926 30.4 265.779 30.7413 266.462 31.424C267.144 32.064 267.486 32.896 267.486 33.92C267.486 34.944 267.144 35.7973 266.462 36.48C265.779 37.12 264.926 37.44 263.902 37.44H258.078V60.096C258.078 61.2053 257.715 62.144 256.99 62.912C256.264 63.6373 255.347 64 254.238 64C253.128 64 252.211 63.6373 251.486 62.912C250.76 62.144 250.398 61.2053 250.398 60.096V37.44H246.942C245.918 37.44 245.064 37.12 244.382 36.48C243.699 35.7973 243.358 34.944 243.358 33.92C243.358 32.896 243.699 32.064 244.382 31.424C245.064 30.7413 245.918 30.4 246.942 30.4H250.398V27.456C250.398 24.256 251.486 21.6533 253.662 19.648C255.88 17.6427 259.059 16.64 263.198 16.64C264.776 16.64 266.142 16.96 267.294 17.6C268.488 18.24 269.086 19.2213 269.086 20.544C269.086 21.568 268.787 22.4 268.19 23.04C267.592 23.68 266.867 24 266.014 24C265.8 24 265.566 23.9787 265.31 23.936C265.096 23.8933 264.862 23.8507 264.606 23.808C263.582 23.552 262.728 23.424 262.046 23.424ZM297.693 29.76C298.802 29.76 299.72 30.144 300.445 30.912C301.17 31.6373 301.533 32.5547 301.533 33.664V60.864C301.533 66.4107 300.04 70.4427 297.053 72.96C294.066 75.52 290.077 76.8 285.085 76.8C283.634 76.8 282.141 76.672 280.605 76.416C279.112 76.2027 277.896 75.904 276.957 75.52C274.866 74.624 273.821 73.3867 273.821 71.808C273.821 71.5093 273.885 71.168 274.013 70.784C274.269 69.8453 274.696 69.12 275.293 68.608C275.933 68.1387 276.616 67.904 277.341 67.904C277.768 67.904 278.173 67.968 278.557 68.096C278.856 68.224 279.368 68.4373 280.093 68.736C280.861 69.0347 281.65 69.2693 282.461 69.44C283.314 69.6533 284.189 69.76 285.085 69.76C288.114 69.76 290.333 69.0987 291.741 67.776C293.192 66.496 293.917 64.2773 293.917 61.12V60.48C291.698 63.2533 288.242 64.64 283.549 64.64C281.33 64.64 279.368 64.128 277.661 63.104C275.954 62.0373 274.632 60.5867 273.693 58.752C272.754 56.8747 272.285 54.7413 272.285 52.352V33.664C272.285 32.5547 272.648 31.6373 273.373 30.912C274.098 30.144 275.016 29.76 276.125 29.76C277.234 29.76 278.152 30.144 278.877 30.912C279.602 31.6373 279.965 32.5547 279.965 33.664V50.048C279.965 52.736 280.541 54.6773 281.693 55.872C282.888 57.024 284.616 57.6 286.877 57.6C289.096 57.6 290.802 56.96 291.997 55.68C293.234 54.3573 293.853 52.48 293.853 50.048V33.664C293.853 32.5547 294.216 31.6373 294.941 30.912C295.666 30.144 296.584 29.76 297.693 29.76Z" fill="#14D35E"/>
<path d="M193.15 65.45C193.15 65.0654 193.303 64.6966 193.574 64.4247C193.846 64.1528 194.215 64 194.6 64C194.984 64 195.353 64.1528 195.625 64.4247C195.897 64.6966 196.05 65.0654 196.05 65.45V74.15C196.05 74.5345 195.897 74.9034 195.625 75.1753C195.353 75.4472 194.984 75.6 194.6 75.6C194.215 75.6 193.846 75.4472 193.574 75.1753C193.303 74.9034 193.15 74.5345 193.15 74.15V65.45Z" fill="#14D35E"/>
<path d="M216.35 65.45C216.35 65.0654 216.503 64.6966 216.775 64.4247C217.047 64.1528 217.416 64 217.8 64C218.185 64 218.554 64.1528 218.825 64.4247C219.097 64.6966 219.25 65.0654 219.25 65.45V74.15C219.25 74.5345 219.097 74.9034 218.825 75.1753C218.554 75.4472 218.185 75.6 217.8 75.6C217.416 75.6 217.047 75.4472 216.775 75.1753C216.503 74.9034 216.35 74.5345 216.35 74.15V65.45Z" fill="#14D35E"/>
<path fill-rule="evenodd" clip-rule="evenodd" d="M196.05 91.55H193.15V94.45H196.05V91.55ZM193.15 88.65C192.381 88.65 191.643 88.9555 191.099 89.4994C190.556 90.0432 190.25 90.7809 190.25 91.55V94.45C190.25 95.2191 190.556 95.9567 191.099 96.5006C191.643 97.0444 192.381 97.35 193.15 97.35H196.05C196.819 97.35 197.557 97.0444 198.101 96.5006C198.644 95.9567 198.95 95.2191 198.95 94.45V91.55C198.95 90.7809 198.644 90.0432 198.101 89.4994C197.557 88.9555 196.819 88.65 196.05 88.65H193.15Z" fill="#14D35E"/>
<path fill-rule="evenodd" clip-rule="evenodd" d="M207.65 91.55H204.75V94.45H207.65V91.55ZM204.75 88.65C203.981 88.65 203.243 88.9555 202.699 89.4994C202.156 90.0432 201.85 90.7809 201.85 91.55V94.45C201.85 95.2191 202.156 95.9567 202.699 96.5006C203.243 97.0444 203.981 97.35 204.75 97.35H207.65C208.419 97.35 209.157 97.0444 209.701 96.5006C210.245 95.9567 210.55 95.2191 210.55 94.45V91.55C210.55 90.7809 210.245 90.0432 209.701 89.4994C209.157 88.9555 208.419 88.65 207.65 88.65H204.75Z" fill="#14D35E"/>
<path fill-rule="evenodd" clip-rule="evenodd" d="M219.25 91.55H216.35V94.45H219.25V91.55ZM216.35 88.65C215.581 88.65 214.843 88.9555 214.299 89.4994C213.755 90.0432 213.45 90.7809 213.45 91.55V94.45C213.45 95.2191 213.755 95.9567 214.299 96.5006C214.843 97.0444 215.581 97.35 216.35 97.35H219.25C220.019 97.35 220.757 97.0444 221.3 96.5006C221.844 95.9567 222.15 95.2191 222.15 94.45V91.55C222.15 90.7809 221.844 90.0432 221.3 89.4994C220.757 88.9555 220.019 88.65 219.25 88.65H216.35Z" fill="#14D35E"/>
<path fill-rule="evenodd" clip-rule="evenodd" d="M196.05 103.15H193.15V106.05H196.05V103.15ZM193.15 100.25C192.381 100.25 191.643 100.555 191.099 101.099C190.556 101.643 190.25 102.381 190.25 103.15V106.05C190.25 106.819 190.556 107.557 191.099 108.101C191.643 108.644 192.381 108.95 193.15 108.95H196.05C196.819 108.95 197.557 108.644 198.101 108.101C198.644 107.557 198.95 106.819 198.95 106.05V103.15C198.95 102.381 198.644 101.643 198.101 101.099C197.557 100.555 196.819 100.25 196.05 100.25H193.15Z" fill="#14D35E"/>
<path fill-rule="evenodd" clip-rule="evenodd" d="M207.65 103.15H204.75V106.05H207.65V103.15ZM204.75 100.25C203.981 100.25 203.243 100.555 202.699 101.099C202.156 101.643 201.85 102.381 201.85 103.15V106.05C201.85 106.819 202.156 107.557 202.699 108.101C203.243 108.644 203.981 108.95 204.75 108.95H207.65C208.419 108.95 209.157 108.644 209.701 108.101C210.245 107.557 210.55 106.819 210.55 106.05V103.15C210.55 102.381 210.245 101.643 209.701 101.099C209.157 100.555 208.419 100.25 207.65 100.25H204.75Z" fill="#14D35E"/>
<path fill-rule="evenodd" clip-rule="evenodd" d="M188.8 72.7001H223.6C224.369 72.7001 225.107 73.0056 225.651 73.5495C226.194 74.0933 226.5 74.8309 226.5 75.6001V98.8C227.5 98.8 228.472 98.9262 229.4 99.1654V75.6001C229.4 74.0618 228.789 72.5866 227.701 71.4989C226.613 70.4111 225.138 69.8001 223.6 69.8001H188.8C187.262 69.8001 185.786 70.4111 184.699 71.4989C183.611 72.5866 183 74.0618 183 75.6001V110.4C183 111.938 183.611 113.414 184.699 114.501C185.786 115.589 187.262 116.2 188.8 116.2H216.451C215.926 115.292 215.527 114.316 215.265 113.3H188.8C188.031 113.3 187.293 112.994 186.749 112.451C186.206 111.907 185.9 111.169 185.9 110.4V75.6001C185.9 74.8309 186.206 74.0933 186.749 73.5495C187.293 73.0056 188.031 72.7001 188.8 72.7001Z" fill="#14D35E"/>
<path d="M183 75.6001C183 74.0618 183.611 72.5866 184.699 71.4989C185.786 70.4111 187.262 69.8001 188.8 69.8001H223.6C225.138 69.8001 226.613 70.4111 227.701 71.4989C228.789 72.5866 229.4 74.0618 229.4 75.6001V85.7501H183V75.6001Z" fill="#14D35E"/>
<path fill-rule="evenodd" clip-rule="evenodd" d="M223.6 72.7001H188.8C188.031 72.7001 187.293 73.0056 186.749 73.5495C186.206 74.0933 185.9 74.8309 185.9 75.6001V82.8501H226.5V75.6001C226.5 74.8309 226.194 74.0933 225.651 73.5495C225.107 73.0056 224.369 72.7001 223.6 72.7001ZM188.8 69.8001C187.262 69.8001 185.786 70.4111 184.699 71.4989C183.611 72.5866 183 74.0618 183 75.6001V85.7501H229.4V75.6001C229.4 74.0618 228.789 72.5866 227.701 71.4989C226.613 70.4111 225.138 69.8001 223.6 69.8001H188.8Z" fill="#14D35E"/>
<path fill-rule="evenodd" clip-rule="evenodd" d="M227.95 85.7499H184.45V82.8499H227.95V85.7499Z" fill="#14D35E"/>
<path fill-rule="evenodd" clip-rule="evenodd" d="M226.5 119.1C228.807 119.1 231.02 118.183 232.652 116.552C234.283 114.92 235.2 112.707 235.2 110.4C235.2 108.093 234.283 105.88 232.652 104.248C231.02 102.617 228.807 101.7 226.5 101.7C224.192 101.7 221.979 102.617 220.348 104.248C218.716 105.88 217.8 108.093 217.8 110.4C217.8 112.707 218.716 114.92 220.348 116.552C221.979 118.183 224.192 119.1 226.5 119.1ZM226.5 122C229.576 122 232.527 120.778 234.702 118.602C236.878 116.427 238.1 113.477 238.1 110.4C238.1 107.323 236.878 104.373 234.702 102.198C232.527 100.022 229.576 98.8 226.5 98.8C223.423 98.8 220.473 100.022 218.297 102.198C216.122 104.373 214.9 107.323 214.9 110.4C214.9 113.477 216.122 116.427 218.297 118.602C220.473 120.778 223.423 122 226.5 122Z" fill="#14D35E"/>
<path fill-rule="evenodd" clip-rule="evenodd" d="M226.5 103.409C226.885 103.409 227.253 103.562 227.525 103.834C227.797 104.106 227.95 104.475 227.95 104.859V111.092L231.505 113.559C231.666 113.666 231.804 113.804 231.911 113.965C232.019 114.125 232.092 114.306 232.129 114.496C232.165 114.685 232.163 114.88 232.123 115.069C232.083 115.258 232.005 115.437 231.895 115.596C231.785 115.754 231.644 115.889 231.481 115.993C231.318 116.096 231.136 116.166 230.946 116.198C230.755 116.23 230.56 116.224 230.372 116.18C230.184 116.135 230.007 116.054 229.851 115.94L225.05 112.608V104.861C225.05 104.476 225.203 104.108 225.475 103.836C225.747 103.564 226.115 103.411 226.5 103.411V103.409Z" fill="#14D35E"/>
</svg>
